<svg width="124" height="186" viewBox="0 0 124 186" fill="none" xmlns="http://www.w3.org/2000/svg">
<g filter="url(#filter0_d_24_320)">
<path d="M119 23L119 205.171C119 210.047 115.047 214 110.171 214C105.294 214 101.341 210.047 101.341 205.171L101.341 43.1941C101.341 31.0439 91.4914 21.1941 79.3411 21.1941L-71.9029 21.1941C-77.4794 21.1941 -82 16.6735 -82 11.0971C-82 5.52061 -77.4794 1 -71.9029 1L97 1C109.15 1 119 10.8497 119 23Z" fill="white"/>
<path d="M119 23L119 205.171C119 210.047 115.047 214 110.171 214C105.294 214 101.341 210.047 101.341 205.171L101.341 43.1941C101.341 31.0439 91.4914 21.1941 79.3411 21.1941L-71.9029 21.1941C-77.4794 21.1941 -82 16.6735 -82 11.0971C-82 5.52061 -77.4794 1 -71.9029 1L97 1C109.15 1 119 10.8497 119 23Z" stroke="white"/>
</g>
<defs>
<filter id="filter0_d_24_320" x="-86.5" y="0.5" width="210" height="222" filterUnits="userSpaceOnUse" color-interpolation-filters="sRGB">
<feFlood flood-opacity="0" result="BackgroundImageFix"/>
<feColorMatrix in="SourceAlpha" type="matrix" values="0 0 0 0 0 0 0 0 0 0 0 0 0 0 0 0 0 0 127 0" result="hardAlpha"/>
<feOffset dy="4"/>
<feGaussianBlur stdDeviation="2"/>
<feComposite in2="hardAlpha" operator="out"/>
<feColorMatrix type="matrix" values="0 0 0 0 0 0 0 0 0 0 0 0 0 0 0 0 0 0 0.25 0"/>
<feBlend mode="normal" in2="BackgroundImageFix" result="effect1_dropShadow_24_320"/>
<feBlend mode="normal" in="SourceGraphic" in2="effect1_dropShadow_24_320" result="shape"/>
</filter>
</defs>
</svg>
