<svg width="109" height="181" viewBox="0 0 109 181" fill="none" xmlns="http://www.w3.org/2000/svg">
<g filter="url(#filter0_d_24_321)">
<path d="M27 1H178.488C182.637 1 186 4.36307 186 8.51163C186 12.6602 182.637 16.0233 178.488 16.0233H44.1603C32.01 16.0233 22.1603 25.873 22.1603 38.0233V163.42C22.1603 168.159 18.3188 172 13.5801 172C8.84146 172 5 168.159 5 163.42V23C5 10.8497 14.8497 1 27 1Z" fill="white"/>
<path d="M27 1H178.488C182.637 1 186 4.36307 186 8.51163C186 12.6602 182.637 16.0233 178.488 16.0233H44.1603C32.01 16.0233 22.1603 25.873 22.1603 38.0233V163.42C22.1603 168.159 18.3188 172 13.5801 172C8.84146 172 5 168.159 5 163.42V23C5 10.8497 14.8497 1 27 1Z" stroke="white"/>
</g>
<defs>
<filter id="filter0_d_24_321" x="0.5" y="0.5" width="190" height="180" filterUnits="userSpaceOnUse" color-interpolation-filters="sRGB">
<feFlood flood-opacity="0" result="BackgroundImageFix"/>
<feColorMatrix in="SourceAlpha" type="matrix" values="0 0 0 0 0 0 0 0 0 0 0 0 0 0 0 0 0 0 127 0" result="hardAlpha"/>
<feOffset dy="4"/>
<feGaussianBlur stdDeviation="2"/>
<feComposite in2="hardAlpha" operator="out"/>
<feColorMatrix type="matrix" values="0 0 0 0 0 0 0 0 0 0 0 0 0 0 0 0 0 0 0.25 0"/>
<feBlend mode="normal" in2="BackgroundImageFix" result="effect1_dropShadow_24_321"/>
<feBlend mode="normal" in="SourceGraphic" in2="effect1_dropShadow_24_321" result="shape"/>
</filter>
</defs>
</svg>
